<?xml version="1.0" encoding="UTF-8" standalone="no"?>
<svg width="388px" height="37px" viewBox="0 0 388 37" version="1.1" xmlns="http://www.w3.org/2000/svg" xmlns:xlink="http://www.w3.org/1999/xlink" xmlns:sketch="http://www.bohemiancoding.com/sketch/ns">
    <!-- Generator: Sketch 3.3.3 (12072) - http://www.bohemiancoding.com/sketch -->
    <title>martinroll-logo</title>
    <desc>Created with Sketch.</desc>
    <defs></defs>
    <g id="Page-1" stroke="none" stroke-width="1" fill="none" fill-rule="evenodd" sketch:type="MSPage">
        <g id="martinroll-logo" sketch:type="MSLayerGroup">
            <g id="Page-1" sketch:type="MSShapeGroup">
                <g id="512">
                    <g id="Imported-Layers">
                        <path d="M167.281,36.215 L157.796,23.504 L150.366,23.504 L150.366,36.215 L144.115,36.215 L144.115,0.935 L159.457,0.935 C167.416,0.935 172.559,5.279 172.559,11.987 C172.559,17.072 169.68,20.79 164.595,22.352 L175.018,36.215 L167.281,36.215 L167.281,36.215 Z M159.133,17.627 C163.533,17.627 166.264,15.52 166.264,12.13 C166.264,7.592 161.824,6.914 159.177,6.914 L150.366,6.914 L150.366,17.627 L159.133,17.627 L159.133,17.627 Z" id="Fill-1" fill="#636365"></path>
                        <path d="M188.315,36.777 C180.576,36.777 174.509,30.692 174.509,22.924 C174.509,15.216 180.611,9.167 188.408,9.167 C196.17,9.167 202.258,15.167 202.258,22.828 C202.258,30.654 196.133,36.777 188.315,36.777 L188.315,36.777 L188.315,36.777 Z M188.315,14.913 C183.869,14.913 180.76,18.167 180.76,22.828 C180.76,27.408 184.119,30.997 188.408,30.997 C192.732,30.997 196.004,27.529 196.004,22.924 C196.004,18.355 192.701,14.913 188.315,14.913 L188.315,14.913 L188.315,14.913 Z" id="Fill-2" fill="#636365"></path>
                        <path d="M205.333,2.201 L211.496,2.201 L211.496,36.215 L205.333,36.215 L205.333,2.201 L205.333,2.201 Z" id="Fill-3" fill="#636365"></path>
                        <path d="M214.964,2.201 L221.122,2.201 L221.122,36.215 L214.964,36.215 L214.964,2.201 L214.964,2.201 Z" id="Fill-4" fill="#636365"></path>
                        <path d="M28.475,36.215 L28.475,12.592 L18.522,27.246 L16.98,27.246 L7.017,12.639 L7.017,36.215 L0.854,36.215 L0.854,0.935 L6.554,0.935 L17.793,17.768 L29.03,0.935 L34.731,0.935 L34.731,36.215 L28.475,36.215" id="Fill-5" fill="#000000"></path>
                        <path d="M49.276,36.729 C44.16,36.729 38.978,33.691 38.978,27.877 C38.978,22.246 43.425,18.749 50.582,18.749 C53.24,18.749 55.21,19.059 56.701,19.396 C56.407,16.413 54.435,14.901 50.821,14.901 C48.015,14.901 45.894,15.704 44.017,16.568 L42.755,17.139 L40.806,11.784 L41.875,11.291 C44.175,10.245 47.083,9.167 51.195,9.167 C58.544,9.167 62.752,13.175 62.752,20.164 L62.752,36.215 L56.74,36.215 L56.74,34.358 C55.073,35.607 52.643,36.729 49.276,36.729 L49.276,36.729 L49.276,36.729 Z M50.961,23.973 C48.806,23.973 45.183,24.463 45.183,27.742 C45.183,30.203 47.669,31.316 49.98,31.316 C53.858,31.316 56.787,29.055 56.787,26.049 L56.787,24.699 C54.839,24.211 52.929,23.973 50.961,23.973 L50.961,23.973 L50.961,23.973 Z" id="Fill-6" fill="#000000"></path>
                        <path d="M92.227,36.641 C87.159,36.641 84.13,33.603 84.13,28.531 L84.13,14.92 L77.773,14.92 C75.252,14.92 73.156,15.471 73.156,22.285 L73.156,36.215 L67.004,36.215 L67.004,19.863 C67.004,12.565 70.426,9.167 77.773,9.167 C77.834,9.167 82.295,9.178 84.13,9.181 L84.13,0.935 L90.285,0.935 L90.285,9.181 L97.959,9.181 L97.959,14.92 L90.285,14.92 L90.285,28.068 C90.285,30.041 91.068,30.807 93.072,30.807 C94.121,30.807 94.953,30.607 96.02,30.094 L97.859,29.205 L97.859,35.104 L97.175,35.462 C95.625,36.268 94.06,36.641 92.227,36.641" id="Fill-7" fill="#000000"></path>
                        <path d="M102.221,0.935 L108.338,0.935 L108.338,6.927 L102.221,6.927 L102.221,0.935 L102.221,0.935 Z" id="Fill-8" fill="#000000"></path>
                        <path d="M102.205,9.165 L108.357,9.165 L108.357,36.215 L102.205,36.215 L102.205,9.165 L102.205,9.165 Z" id="Fill-9" fill="#000000"></path>
                        <path d="M130.125,36.215 L130.125,20.818 C130.125,16.964 128.264,14.92 124.729,14.92 C121.162,14.92 118.763,17.404 118.763,21.106 L118.763,36.215 L112.603,36.215 L112.603,9.165 L118.763,9.165 L118.763,11.475 C120.593,9.938 122.896,9.183 125.756,9.183 C132.152,9.183 136.285,13.404 136.285,19.931 L136.285,36.215 L130.125,36.215" id="Fill-10" fill="#000000"></path>
                        <path d="M248.158,16.147 C248.158,17.085 247.807,17.812 247.105,18.325 C246.402,18.839 245.428,19.096 244.179,19.096 L239.022,19.096 L239.022,8.759 L243.74,8.759 C244.998,8.759 245.95,8.978 246.596,9.415 C247.242,9.853 247.565,10.5 247.565,11.356 C247.565,11.943 247.403,12.438 247.079,12.841 C246.755,13.245 246.261,13.518 245.598,13.66 C246.432,13.757 247.066,14.02 247.504,14.448 C247.94,14.876 248.158,15.442 248.158,16.147 L248.158,16.147 L248.158,16.147 Z M245.393,11.649 C245.393,11.185 245.246,10.854 244.95,10.659 C244.655,10.463 244.218,10.366 243.637,10.366 L241.18,10.366 L241.18,12.926 L243.652,12.926 C244.262,12.926 244.704,12.819 244.98,12.607 C245.255,12.394 245.393,12.075 245.393,11.649 L245.393,11.649 L245.393,11.649 Z M245.992,15.978 C245.992,15.009 245.301,14.525 243.916,14.525 L241.18,14.525 L241.18,17.489 L243.996,17.489 C244.688,17.489 245.194,17.363 245.514,17.111 C245.833,16.859 245.992,16.481 245.992,15.978 L245.992,15.978 L245.992,15.978 Z" id="Fill-11" fill="#000000"></path>
                        <path d="M254.127,19.242 C252.708,19.242 251.621,18.895 250.868,18.201 C250.115,17.506 249.738,16.513 249.738,15.222 L249.738,8.759 L251.897,8.759 L251.897,15.053 C251.897,15.87 252.09,16.49 252.478,16.913 C252.865,17.336 253.435,17.548 254.186,17.548 C254.956,17.548 255.549,17.327 255.963,16.884 C256.377,16.441 256.585,15.807 256.585,14.98 L256.585,8.759 L258.742,8.759 L258.742,15.112 C258.742,16.423 258.34,17.439 257.532,18.16 C256.725,18.882 255.59,19.242 254.127,19.242" id="Fill-12" fill="#000000"></path>
                        <path d="M269.065,16.117 C269.065,17.129 268.69,17.903 267.941,18.439 C267.193,18.975 266.094,19.242 264.647,19.242 C263.324,19.242 262.288,19.008 261.537,18.538 C260.786,18.069 260.303,17.357 260.089,16.403 L262.174,16.059 C262.315,16.606 262.59,17.004 263,17.25 C263.41,17.498 263.978,17.621 264.705,17.621 C266.211,17.621 266.965,17.162 266.965,16.242 C266.965,15.948 266.879,15.707 266.705,15.516 C266.532,15.325 266.288,15.166 265.974,15.039 C265.659,14.912 265.056,14.757 264.163,14.577 C263.393,14.395 262.856,14.25 262.554,14.14 C262.252,14.03 261.979,13.9 261.734,13.751 C261.49,13.602 261.283,13.422 261.113,13.212 C260.941,13.002 260.809,12.755 260.715,12.471 C260.619,12.188 260.572,11.862 260.572,11.495 C260.572,10.561 260.922,9.846 261.621,9.35 C262.32,8.853 263.339,8.605 264.676,8.605 C265.953,8.605 266.912,8.806 267.554,9.206 C268.195,9.607 268.608,10.27 268.793,11.194 L266.701,11.48 C266.594,11.036 266.376,10.701 266.047,10.476 C265.718,10.25 265.246,10.138 264.631,10.138 C263.324,10.138 262.671,10.549 262.671,11.371 C262.671,11.64 262.74,11.86 262.879,12.031 C263.019,12.202 263.225,12.348 263.498,12.467 C263.771,12.587 264.324,12.738 265.158,12.918 C266.148,13.129 266.856,13.323 267.283,13.502 C267.709,13.68 268.047,13.888 268.296,14.125 C268.545,14.363 268.734,14.647 268.867,14.977 C268.998,15.307 269.065,15.687 269.065,16.117" id="Fill-13" fill="#000000"></path>
                        <path d="M270.651,8.759 L272.809,8.759 L272.809,19.096 L270.651,19.096 L270.651,8.759 L270.651,8.759 Z" id="Fill-14" fill="#000000"></path>
                        <path d="M281.09,19.096 L276.599,11.136 C276.686,11.909 276.73,12.53 276.73,12.999 L276.73,19.096 L274.814,19.096 L274.814,8.759 L277.279,8.759 L281.836,16.785 C281.748,16.046 281.704,15.374 281.704,14.767 L281.704,8.759 L283.621,8.759 L283.621,19.096 L281.09,19.096" id="Fill-15" fill="#000000"></path>
                        <path d="M285.633,19.096 L285.633,8.759 L293.737,8.759 L293.737,10.432 L287.791,10.432 L287.791,13.029 L293.291,13.029 L293.291,14.701 L287.791,14.701 L287.791,17.423 L294.037,17.423 L294.037,19.096 L285.633,19.096" id="Fill-16" fill="#000000"></path>
                        <path d="M304.029,16.117 C304.029,17.129 303.654,17.903 302.906,18.439 C302.158,18.975 301.059,19.242 299.611,19.242 C298.289,19.242 297.253,19.008 296.502,18.538 C295.751,18.069 295.268,17.357 295.054,16.403 L297.139,16.059 C297.279,16.606 297.555,17.004 297.965,17.25 C298.375,17.498 298.943,17.621 299.67,17.621 C301.176,17.621 301.93,17.162 301.93,16.242 C301.93,15.948 301.844,15.707 301.67,15.516 C301.497,15.325 301.253,15.166 300.939,15.039 C300.624,14.912 300.021,14.757 299.128,14.577 C298.357,14.395 297.821,14.25 297.519,14.14 C297.217,14.03 296.943,13.9 296.699,13.751 C296.455,13.602 296.248,13.422 296.078,13.212 C295.906,13.002 295.773,12.755 295.68,12.471 C295.584,12.188 295.537,11.862 295.537,11.495 C295.537,10.561 295.887,9.846 296.586,9.35 C297.285,8.853 298.304,8.605 299.641,8.605 C300.918,8.605 301.877,8.806 302.519,9.206 C303.16,9.607 303.573,10.27 303.758,11.194 L301.666,11.48 C301.559,11.036 301.341,10.701 301.012,10.476 C300.683,10.25 300.211,10.138 299.596,10.138 C298.289,10.138 297.636,10.549 297.636,11.371 C297.636,11.64 297.705,11.86 297.844,12.031 C297.983,12.202 298.19,12.348 298.463,12.467 C298.735,12.587 299.289,12.738 300.123,12.918 C301.113,13.129 301.821,13.323 302.248,13.502 C302.674,13.68 303.012,13.888 303.261,14.125 C303.51,14.363 303.699,14.647 303.832,14.977 C303.963,15.307 304.029,15.687 304.029,16.117" id="Fill-17" fill="#000000"></path>
                        <path d="M314.022,16.117 C314.022,17.129 313.647,17.903 312.898,18.439 C312.15,18.975 311.051,19.242 309.604,19.242 C308.281,19.242 307.245,19.008 306.494,18.538 C305.743,18.069 305.26,17.357 305.046,16.403 L307.131,16.059 C307.272,16.606 307.547,17.004 307.957,17.25 C308.367,17.498 308.935,17.621 309.662,17.621 C311.168,17.621 311.922,17.162 311.922,16.242 C311.922,15.948 311.836,15.707 311.662,15.516 C311.489,15.325 311.245,15.166 310.931,15.039 C310.616,14.912 310.013,14.757 309.12,14.577 C308.35,14.395 307.814,14.25 307.511,14.14 C307.209,14.03 306.935,13.9 306.691,13.751 C306.447,13.602 306.24,13.422 306.07,13.212 C305.898,13.002 305.766,12.755 305.672,12.471 C305.576,12.188 305.529,11.862 305.529,11.495 C305.529,10.561 305.879,9.846 306.578,9.35 C307.277,8.853 308.296,8.605 309.633,8.605 C310.91,8.605 311.869,8.806 312.511,9.206 C313.152,9.607 313.565,10.27 313.75,11.194 L311.658,11.48 C311.551,11.036 311.333,10.701 311.004,10.476 C310.675,10.25 310.203,10.138 309.588,10.138 C308.281,10.138 307.628,10.549 307.628,11.371 C307.628,11.64 307.697,11.86 307.836,12.031 C307.976,12.202 308.182,12.348 308.455,12.467 C308.728,12.587 309.281,12.738 310.115,12.918 C311.106,13.129 311.814,13.323 312.24,13.502 C312.666,13.68 313.004,13.888 313.253,14.125 C313.502,14.363 313.691,14.647 313.824,14.977 C313.955,15.307 314.022,15.687 314.022,16.117" id="Fill-18" fill="#000000"></path>
                        <path d="M319.427,16.272 C319.427,15.611 319.625,15.023 320.02,14.507 C320.414,13.991 321.041,13.532 321.899,13.131 C321.539,12.397 321.357,11.715 321.357,11.085 C321.357,10.321 321.597,9.733 322.074,9.32 C322.553,8.907 323.232,8.7 324.115,8.7 C324.935,8.7 325.582,8.896 326.059,9.287 C326.533,9.678 326.772,10.209 326.772,10.879 C326.772,11.256 326.676,11.596 326.486,11.899 C326.295,12.202 326.025,12.483 325.678,12.743 C325.328,13.002 324.737,13.327 323.904,13.718 C324.387,14.574 324.981,15.396 325.689,16.183 C326.195,15.411 326.581,14.523 326.844,13.52 L328.373,14.034 C328.041,15.173 327.57,16.2 326.961,17.115 C327.381,17.472 327.815,17.65 328.264,17.65 C328.58,17.65 328.865,17.611 329.119,17.533 L329.119,19.022 C328.852,19.13 328.531,19.184 328.161,19.184 C327.741,19.184 327.32,19.108 326.898,18.956 C326.477,18.805 326.094,18.585 325.747,18.296 C324.918,18.927 323.994,19.242 322.975,19.242 C321.848,19.242 320.975,18.982 320.356,18.461 C319.736,17.94 319.427,17.21 319.427,16.272 L319.427,16.272 L319.427,16.272 Z M324.533,17.291 C323.723,16.386 323.06,15.464 322.543,14.525 C321.704,14.921 321.285,15.494 321.285,16.242 C321.285,16.726 321.443,17.115 321.76,17.408 C322.077,17.702 322.509,17.849 323.055,17.849 C323.372,17.849 323.658,17.79 323.914,17.672 C324.17,17.555 324.377,17.428 324.533,17.291 L324.533,17.291 L324.533,17.291 Z M325.133,10.894 C325.133,10.615 325.04,10.388 324.854,10.211 C324.669,10.036 324.418,9.947 324.102,9.947 C323.726,9.947 323.44,10.053 323.242,10.263 C323.044,10.473 322.945,10.752 322.945,11.099 C322.945,11.525 323.077,11.997 323.34,12.515 C323.853,12.295 324.219,12.109 324.441,11.957 C324.663,11.806 324.834,11.644 324.953,11.473 C325.072,11.302 325.133,11.109 325.133,10.894 L325.133,10.894 L325.133,10.894 Z" id="Fill-19" fill="#000000"></path>
                        <path d="M343.889,16.147 C343.889,17.085 343.537,17.812 342.834,18.325 C342.133,18.839 341.157,19.096 339.908,19.096 L334.752,19.096 L334.752,8.759 L339.47,8.759 C340.729,8.759 341.68,8.978 342.326,9.415 C342.973,9.853 343.295,10.5 343.295,11.356 C343.295,11.943 343.133,12.438 342.809,12.841 C342.484,13.245 341.99,13.518 341.328,13.66 C342.162,13.757 342.797,14.02 343.233,14.448 C343.67,14.876 343.889,15.442 343.889,16.147 L343.889,16.147 L343.889,16.147 Z M341.123,11.649 C341.123,11.185 340.976,10.854 340.68,10.659 C340.385,10.463 339.947,10.366 339.367,10.366 L336.91,10.366 L336.91,12.926 L339.382,12.926 C339.992,12.926 340.434,12.819 340.709,12.607 C340.984,12.394 341.123,12.075 341.123,11.649 L341.123,11.649 L341.123,11.649 Z M341.723,15.978 C341.723,15.009 341.03,14.525 339.646,14.525 L336.91,14.525 L336.91,17.489 L339.726,17.489 C340.418,17.489 340.924,17.363 341.244,17.111 C341.562,16.859 341.723,16.481 341.723,15.978 L341.723,15.978 L341.723,15.978 Z" id="Fill-20" fill="#000000"></path>
                        <path d="M352.651,19.096 L350.26,15.171 L347.729,15.171 L347.729,19.096 L345.57,19.096 L345.57,8.759 L350.721,8.759 C351.949,8.759 352.897,9.024 353.566,9.555 C354.234,10.085 354.568,10.847 354.568,11.84 C354.568,12.564 354.363,13.189 353.953,13.714 C353.544,14.24 352.99,14.586 352.293,14.752 L355.08,19.096 L352.651,19.096 L352.651,19.096 Z M352.396,11.928 C352.396,10.935 351.762,10.439 350.494,10.439 L347.729,10.439 L347.729,13.491 L350.552,13.491 C351.156,13.491 351.615,13.354 351.928,13.08 C352.239,12.806 352.396,12.422 352.396,11.928 L352.396,11.928 L352.396,11.928 Z" id="Fill-21" fill="#000000"></path>
                        <path d="M363.675,19.096 L362.761,16.455 L358.832,16.455 L357.918,19.096 L355.76,19.096 L359.52,8.759 L362.066,8.759 L365.81,19.096 L363.675,19.096 L363.675,19.096 Z M360.793,10.351 L360.749,10.512 C360.7,10.689 360.642,10.889 360.573,11.114 C360.506,11.339 360.086,12.576 359.315,14.826 L362.277,14.826 L361.262,11.855 L360.947,10.857 L360.793,10.351 L360.793,10.351 Z" id="Fill-22" fill="#000000"></path>
                        <path d="M373.484,19.096 L368.993,11.136 C369.081,11.909 369.125,12.53 369.125,12.999 L369.125,19.096 L367.208,19.096 L367.208,8.759 L369.674,8.759 L374.23,16.785 C374.143,16.046 374.099,15.374 374.099,14.767 L374.099,8.759 L376.016,8.759 L376.016,19.096 L373.484,19.096" id="Fill-23" fill="#000000"></path>
                        <path d="M387.215,13.85 C387.215,14.917 387.006,15.847 386.59,16.642 C386.172,17.436 385.582,18.044 384.818,18.465 C384.056,18.885 383.182,19.096 382.197,19.096 L378.027,19.096 L378.027,8.759 L381.758,8.759 C383.494,8.759 384.838,9.198 385.788,10.076 C386.739,10.954 387.215,12.212 387.215,13.85 L387.215,13.85 L387.215,13.85 Z M385.042,13.85 C385.042,12.74 384.754,11.893 384.179,11.308 C383.603,10.724 382.781,10.432 381.714,10.432 L380.185,10.432 L380.185,17.423 L382.014,17.423 C382.94,17.423 383.677,17.102 384.223,16.462 C384.77,15.821 385.042,14.951 385.042,13.85 L385.042,13.85 L385.042,13.85 Z" id="Fill-24" fill="#000000"></path>
                        <path d="M239.022,34.164 L239.022,23.826 L241.18,23.826 L241.18,32.49 L246.709,32.49 L246.709,34.164 L239.022,34.164" id="Fill-25" fill="#000000"></path>
                        <path d="M248.172,34.164 L248.172,23.826 L256.277,23.826 L256.277,25.5 L250.33,25.5 L250.33,28.097 L255.831,28.097 L255.831,29.77 L250.33,29.77 L250.33,32.49 L256.578,32.49 L256.578,34.164 L248.172,34.164" id="Fill-26" fill="#000000"></path>
                        <path d="M265.45,34.164 L264.536,31.522 L260.607,31.522 L259.693,34.164 L257.535,34.164 L261.295,23.826 L263.842,23.826 L267.586,34.164 L265.45,34.164 L265.45,34.164 Z M262.568,25.419 L262.524,25.58 C262.476,25.756 262.417,25.957 262.349,26.182 C262.281,26.406 261.861,27.644 261.091,29.894 L264.053,29.894 L263.037,26.923 L262.723,25.925 L262.568,25.419 L262.568,25.419 Z" id="Fill-27" fill="#000000"></path>
                        <path d="M278.171,28.918 C278.171,29.984 277.963,30.915 277.546,31.709 C277.129,32.504 276.539,33.112 275.775,33.533 C275.012,33.953 274.139,34.164 273.153,34.164 L268.983,34.164 L268.983,23.826 L272.715,23.826 C274.45,23.826 275.794,24.266 276.744,25.144 C277.695,26.022 278.171,27.279 278.171,28.918 L278.171,28.918 L278.171,28.918 Z M275.998,28.918 C275.998,27.809 275.711,26.961 275.135,26.376 C274.56,25.792 273.738,25.5 272.67,25.5 L271.142,25.5 L271.142,32.49 L272.971,32.49 C273.897,32.49 274.633,32.17 275.18,31.529 C275.726,30.889 275.998,30.019 275.998,28.918 L275.998,28.918 L275.998,28.918 Z" id="Fill-28" fill="#000000"></path>
                        <path d="M279.803,34.164 L279.803,23.826 L287.907,23.826 L287.907,25.5 L281.961,25.5 L281.961,28.097 L287.461,28.097 L287.461,29.77 L281.961,29.77 L281.961,32.49 L288.207,32.49 L288.207,34.164 L279.803,34.164" id="Fill-29" fill="#000000"></path>
                        <path d="M296.875,34.164 L294.483,30.238 L291.953,30.238 L291.953,34.164 L289.795,34.164 L289.795,23.826 L294.944,23.826 C296.174,23.826 297.121,24.092 297.79,24.623 C298.458,25.153 298.792,25.915 298.792,26.908 C298.792,27.632 298.587,28.257 298.178,28.782 C297.768,29.309 297.215,29.654 296.518,29.82 L299.305,34.164 L296.875,34.164 L296.875,34.164 Z M296.619,26.996 C296.619,26.004 295.985,25.507 294.718,25.507 L291.953,25.507 L291.953,28.559 L294.775,28.559 C295.381,28.559 295.84,28.422 296.151,28.148 C296.463,27.874 296.619,27.49 296.619,26.996 L296.619,26.996 L296.619,26.996 Z" id="Fill-30" fill="#000000"></path>
                        <path d="M309.018,31.185 C309.018,32.197 308.644,32.971 307.895,33.507 C307.147,34.043 306.048,34.31 304.6,34.31 C303.277,34.31 302.242,34.076 301.49,33.605 C300.74,33.137 300.257,32.425 300.043,31.471 L302.127,31.127 C302.269,31.674 302.544,32.072 302.953,32.318 C303.363,32.565 303.932,32.69 304.658,32.69 C306.165,32.69 306.918,32.23 306.918,31.31 C306.918,31.016 306.832,30.774 306.658,30.584 C306.486,30.393 306.242,30.234 305.928,30.106 C305.613,29.98 305.01,29.825 304.117,29.644 C303.346,29.463 302.81,29.318 302.508,29.208 C302.205,29.098 301.932,28.969 301.689,28.819 C301.444,28.67 301.237,28.49 301.066,28.279 C300.896,28.07 300.763,27.822 300.668,27.539 C300.572,27.256 300.525,26.93 300.525,26.562 C300.525,25.629 300.875,24.914 301.574,24.418 C302.274,23.921 303.293,23.673 304.629,23.673 C305.906,23.673 306.866,23.873 307.508,24.274 C308.148,24.676 308.562,25.338 308.747,26.262 L306.655,26.549 C306.548,26.103 306.33,25.769 306,25.543 C305.672,25.318 305.199,25.206 304.585,25.206 C303.277,25.206 302.625,25.617 302.625,26.439 C302.625,26.707 302.693,26.928 302.833,27.099 C302.973,27.269 303.178,27.416 303.451,27.535 C303.725,27.655 304.277,27.806 305.111,27.986 C306.102,28.197 306.81,28.391 307.236,28.57 C307.663,28.748 308.001,28.956 308.25,29.193 C308.498,29.431 308.689,29.715 308.82,30.045 C308.952,30.375 309.018,30.755 309.018,31.185" id="Fill-31" fill="#000000"></path>
                        <path d="M317.254,34.164 L317.254,29.732 L312.764,29.732 L312.764,34.164 L310.606,34.164 L310.606,23.826 L312.764,23.826 L312.764,27.942 L317.254,27.942 L317.254,23.826 L319.412,23.826 L319.412,34.164 L317.254,34.164" id="Fill-32" fill="#000000"></path>
                        <path d="M321.424,23.826 L323.582,23.826 L323.582,34.164 L321.424,34.164 L321.424,23.826 L321.424,23.826 Z" id="Fill-33" fill="#000000"></path>
                        <path d="M334.065,27.099 C334.065,27.764 333.913,28.358 333.61,28.881 C333.309,29.404 332.875,29.81 332.312,30.096 C331.749,30.382 331.08,30.525 330.305,30.525 L327.744,30.525 L327.744,34.164 L325.586,34.164 L325.586,23.826 L330.217,23.826 C331.45,23.826 332.4,24.111 333.065,24.682 C333.731,25.252 334.065,26.057 334.065,27.099 L334.065,27.099 L334.065,27.099 Z M331.892,27.135 C331.892,26.05 331.252,25.507 329.975,25.507 L327.744,25.507 L327.744,28.859 L330.033,28.859 C330.629,28.859 331.087,28.711 331.408,28.416 C331.73,28.119 331.892,27.693 331.892,27.135 L331.892,27.135 L331.892,27.135 Z" id="Fill-34" fill="#000000"></path>
                    </g>
                </g>
            </g>
        </g>
    </g>
</svg>